<?xml version="1.0" encoding="UTF-8"?>
<svg id="Capa_1" xmlns="http://www.w3.org/2000/svg" viewBox="0 0 783.59 697.65">
  <defs>
    <style>
      .cls-1 {
        fill: #211813;
      }
    </style>
  </defs>
  <path class="cls-1" d="M512.01,302.65h-75.02v-77.32c0-10.44-8.48-18.92-18.92-18.92h-58.11c-10.44,0-18.92,8.48-18.92,18.92v77.32h-75.02c-10.44,0-18.92,8.49-18.92,18.93v58.57c0,10.44,8.48,18.92,18.92,18.92h75.02v77.32c0,10.44,8.48,18.92,18.92,18.92h58.11c10.44,0,18.92-8.48,18.92-18.92v-77.32h75.02c10.44,0,18.94-8.48,18.94-18.92v-58.57c0-10.44-8.5-18.93-18.94-18.93Z"/>
</svg>