<?xml version="1.0" encoding="UTF-8"?>
<svg id="Capa_1" xmlns="http://www.w3.org/2000/svg" viewBox="0 0 783.59 697.65">
  <defs>
    <style>
      .cls-1 {
        fill: #211813;
      }
    </style>
  </defs>
  <path class="cls-1" d="M583.88,322.31h-44.42v-45.78c0-6.18-5.02-11.2-11.2-11.2h-34.41c-6.18,0-11.2,5.02-11.2,11.2v45.78h-44.42c-6.18,0-11.2,5.03-11.2,11.21v34.68c0,6.18,5.02,11.2,11.2,11.2h44.42v45.78c0,6.18,5.02,11.2,11.2,11.2h34.41c6.18,0,11.2-5.02,11.2-11.2v-45.78h44.42c6.18,0,11.21-5.02,11.21-11.2v-34.68c0-6.18-5.03-11.21-11.21-11.21Z"/>
  <path class="cls-1" d="M188.5,484.5V213.15c0-3.72,3.02-6.74,6.74-6.74h31.27c3.72,0,6.74,3.02,6.74,6.74v107.28c0,3.77,3.06,6.83,6.83,6.83h42.24c2.15,0,4.17-1.02,5.44-2.75l84.66-115.35c1.27-1.73,3.29-2.75,5.44-2.75h38.19c5.53,0,8.71,6.29,5.43,10.74l-93.28,126.81c-1.77,2.41-1.75,5.69.06,8.07l97.39,128.4c3.37,4.44.2,10.82-5.37,10.82h-39.21c-2.11,0-4.11-.99-5.38-2.68l-87.51-115.9c-1.27-1.69-3.27-2.68-5.38-2.68h-42.71c-3.77,0-6.83,3.06-6.83,6.83v107.68c0,3.72-3.02,6.74-6.74,6.74h-31.27c-3.72,0-6.74-3.02-6.74-6.74Z"/>
</svg>