<?xml version="1.0" encoding="UTF-8"?>
<svg id="Capa_1" xmlns="http://www.w3.org/2000/svg" viewBox="0 0 783.59 697.65">
  <defs>
    <style>
      .cls-1 {
        fill: #211813;
      }
    </style>
  </defs>
  <path class="cls-1" d="M457.76,206.41h-131.93c-45.23,0-81.88,36.69-81.88,81.92v125.07c0,45.23,36.65,81.92,81.88,81.92h131.93c45.23,0,81.88-36.69,81.88-81.92v-125.07c0-45.23-36.65-81.92-81.88-81.92ZM453.33,364.59c0,4.54-3.71,8.22-8.22,8.22h-32.51v33.51c0,4.54-3.68,8.22-8.22,8.22h-25.19c-4.54,0-8.22-3.68-8.22-8.22v-33.51h-32.51c-4.54,0-8.22-3.68-8.22-8.22v-25.36c0-4.54,3.68-8.22,8.22-8.22h32.51v-33.51c0-4.54,3.68-8.22,8.22-8.22h25.19c4.54,0,8.22,3.68,8.22,8.22v33.51h32.51c4.5,0,8.22,3.68,8.22,8.22v25.36Z"/>
</svg>