<?xml version="1.0" encoding="UTF-8"?>
<svg id="Capa_1" xmlns="http://www.w3.org/2000/svg" viewBox="0 0 1920 1080">
  <defs>
    <style>
      .cls-1 {
        fill: #76dddd;
      }
    </style>
  </defs>
  <g>
    <path class="cls-1" d="M435.04,651.74v-226.88c0-3.11,2.52-5.64,5.64-5.64h26.14c3.11,0,5.64,2.52,5.64,5.64v89.7c0,3.15,2.56,5.71,5.71,5.71h35.32c1.8,0,3.48-.85,4.55-2.3l70.79-96.44c1.06-1.45,2.75-2.3,4.55-2.3h31.93c4.62,0,7.28,5.26,4.54,8.98l-77.99,106.03c-1.48,2.01-1.46,4.76.05,6.75l81.43,107.36c2.82,3.71.17,9.05-4.49,9.05h-32.78c-1.77,0-3.43-.83-4.5-2.24l-73.17-96.91c-1.07-1.41-2.73-2.24-4.5-2.24h-35.71c-3.15,0-5.71,2.56-5.71,5.71v90.04c0,3.11-2.52,5.64-5.64,5.64h-26.14c-3.11,0-5.64-2.52-5.64-5.64Z"/>
    <path class="cls-1" d="M822.01,634.24c-18.94,17.7-42.24,26.54-69.91,26.54s-50.99-8.84-69.91-26.54c-18.94-17.69-28.41-40.94-28.41-69.74v-139.64c0-3.11,2.52-5.64,5.64-5.64h26.14c3.11,0,5.64,2.52,5.64,5.64v132.83c0,19.28,5.56,35.33,16.67,48.14,11.12,12.82,25.86,19.22,44.23,19.22s33.11-6.41,44.23-19.22c11.11-12.81,16.67-28.86,16.67-48.14v-132.83c0-3.11,2.52-5.64,5.64-5.64h26.14c3.11,0,5.64,2.52,5.64,5.64v139.64c0,28.81-9.47,52.05-28.41,69.74Z"/>
    <path class="cls-1" d="M1063.11,657.38h-28.23c-2.12,0-4.06-1.19-5.02-3.08l-42.79-84c-.96-1.89-2.9-3.08-5.02-3.08h-49.46c-1.97,0-3.56,1.59-3.56,3.56v80.96c0,3.11-2.52,5.64-5.64,5.64h-25.81c-3.11,0-5.64-2.52-5.64-5.64v-226.88c0-3.11,2.52-5.64,5.64-5.64h92.35c22,0,40.6,6.7,55.79,20.07,15.2,13.39,22.8,31.42,22.8,54.1,0,17.01-4.37,31.42-13.1,43.21-7.89,10.66-18.04,18.62-30.46,23.91-2.14.91-3.1,3.39-1.99,5.44l45.11,83.1c2.04,3.76-.68,8.33-4.95,8.33ZM929.02,457.86v71.4c0,3.11,2.52,5.64,5.64,5.64h51.52c13.38,0,24.16-3.74,32.32-11.23,8.16-7.49,12.25-17.46,12.25-29.94s-4.09-22.51-12.25-30.11c-8.16-7.6-18.94-11.4-32.32-11.4h-51.52c-3.11,0-5.64,2.52-5.64,5.64Z"/>
    <path class="cls-1" d="M1099.58,649.61l92.37-226.88c.86-2.12,2.93-3.51,5.22-3.51h31.92c2.28,0,4.33,1.37,5.21,3.47l94.31,226.88c1.54,3.71-1.18,7.8-5.21,7.8h-28.94c-2.29,0-4.35-1.38-5.22-3.5l-15.5-37.9c-.87-2.12-2.93-3.5-5.22-3.5h-109.41c-2.32,0-4.4,1.42-5.25,3.57l-14.87,37.76c-.85,2.16-2.93,3.57-5.25,3.57h-28.95c-4,0-6.73-4.06-5.22-7.76ZM1215.68,467.98c-.81-2-3.64-1.99-4.44.01l-41.76,105.15c-.94,2.38.82,4.96,3.38,4.96h81.84c2.57,0,4.33-2.6,3.37-4.98l-42.39-105.15Z"/>
  </g>
  <path class="cls-1" d="M1475.59,516.13h-37.14v-38.28c0-5.17-4.2-9.37-9.37-9.37h-28.77c-5.17,0-9.37,4.2-9.37,9.37v38.28h-37.14c-5.17,0-9.37,4.2-9.37,9.37v28.99c0,5.17,4.2,9.37,9.37,9.37h37.14v38.28c0,5.17,4.2,9.37,9.37,9.37h28.77c5.17,0,9.37-4.2,9.37-9.37v-38.28h37.14c5.17,0,9.37-4.2,9.37-9.37v-28.99c0-5.17-4.21-9.37-9.37-9.37Z"/>
</svg>